# xmcd CD database file
#
# Track frame offsets:
#	150
#	18648
#	30701
#	39524
#	47807
#	64769
#	78092
#	96180
#	111954
#	124195
#	144607
#	155096
#	165489
#	175289
#	185993
#
# Disc length: 2750 seconds
#
# Revision: 0
# Processed by: cddbd v1.5PL3 Copyright (c) Steve Scherf et al.
# Submitted via: CDex 1.51
#
DISCID=d10abc0f
DTITLE=Findhorn Foundation Community Singers - Songs of Heaven and Earth
DYEAR=2001
DGENRE=New Age
TTITLE0=Alleluia - Israel
TTITLE1=Thy Kingdom Come - Sanyassin chant arr. B. Swetina
TTITLE2=Siya Hamba - South Africa
TTITLE3=Allelulia round - Mozart
TTITLE4=Kyrie - Ghana
TTITLE5=Santo, Santo, Santo - Argentina
TTITLE6=Freedom is Coming - South Africa
TTITLE7=Noyana - South Africa
TTITLE8=Tibje Pajom - Russian Hymn
TTITLE9=Peace Prayer Mandala
TTITLE10=Halle, Halle, Halle - Caribbean
TTITLE11=Havana Shira - Hebrew Round
TTITLE12=Russian Alleluia - Orthodox Chant
TTITLE13=Be Still and Know
TTITLE14=Agios o Theos - Greek Orthodox Hymn
EXTD=YEAR: 2001
EXTT0=
EXTT1=
EXTT2=
EXTT3=
EXTT4=
EXTT5=
EXTT6=
EXTT7=
EXTT8=
EXTT9=
EXTT10=
EXTT11=
EXTT12=
EXTT13=
EXTT14=
PLAYORDER=
